<svg xmlns="http://www.w3.org/2000/svg" viewBox="0 0 463.097 421.318" class="aq8IKi" aria-label="Logo" style="height: 74px;"><g fill-rule="nonzero" fill="none"><svg xmlns="http://www.w3.org/2000/svg" viewBox="0 0 463.097 421.318" class="_1ZnruP" style="fill: rgb(245, 105, 77);"><path d="M462.672 182.35c-.012-.163-.032-.325-.048-.488-.5-5-.836-10.029-1.551-14.991-.612-4.2-1.258-8.326-1.308-7.665-2.914-17.292-8.7-34.369-15.9-50.368-6.136-13.631-13.662-26.749-23.42-37.983-5.853-6.737-12.451-12.735-19.03-18.714-2.952-2.682-5.905-5.365-8.953-7.927a151.248 151.248 0 00-37.873-23.308 310.565 310.565 0 00-7.751-3.167c-.864-.512-1.72-1.026-2.548-1.547-2.325-1.463-8.026-3.29-8.026-3.29s-7.842-2.768-10.844-3.368c-1.494-.3-3.722-.692-6.4-1.134q-6.142-1.671-12.28-2.958c-6.88-1.433-13.828-2.415-20.784-3.2Q269.271.367 252.526.018C242.1-.2 232.76 1.6 222.553 3.281A406.836 406.836 0 00172.6 14.758a204.233 204.233 0 00-26.066 9.6c-9.7 4.4-17.621 10.631-27.682 14.484C94 48.355 75.719 65.663 55.934 82.924c-8.788 7.667-17.7 15.469-24.546 25.106-7.141 10.052-12.328 21.92-17.364 33.251C3.142 165.765 1.1 196.228.165 223.149c-.09 2.586.068 6.762-.076 8.419.468 6.235-.286 3.067-.037 7.126-.13 1.23.188 5.536.521 9.684.4 4.623.651 7.911.323 6.568.571 5.377.91 8.745 1.007 10.025a786.428 786.428 0 001.254 10.184 57.24 57.24 0 00.919 5.981c.073-.035.878 5.113 1.751 10.475 1.183 7.683 1.217 6.487 1.259 5.051.266.238.982 3.549 1.786 7.22.592 2.076 1.193 3.93 2.06 7.459 6.195 14.582 11.137 28.565 20.576 41.545a126.592 126.592 0 0034.15 32.314c3.878 2.469 7.879 4.712 11.879 6.954a72.044 72.044 0 009.863 4.887c5.6 2.09 11.549 2.705 17.335 4.047 14.7 3.411 28.461 11.589 43.45 13.428 16.723 2.051 33.636 3.625 50.417 5.4 26.695 2.818 52.239.986 78.642-1.881 9.925-1.077 19.7-3.553 29.32-6.169 9.589-2.608 19.483-4.03 28.962-7.216 10.562-3.549 20.472-8.694 30.492-13.5 8.677-4.165 16.426-8.511 23.418-15.25a146.925 146.925 0 0013.48-15.338c4.039-5.153 8.606-9.748 12.571-14.985 2.026-2.676 4.036-5.583 6.027-8.653.038.07.07.146.11.215 4.455-7.817 9.281-14.548 13.982-22.13 4.747-7.657 6.733-16.236 9.664-24.7 3-8.675 7-17.349 10-26.023 2.916-8.427 5.336-36.186 6.535-44.906.1-.739.093-1.124-.007-1.222a204.619 204.619 0 00.874-35.808z"></path></svg><svg xmlns="http://www.w3.org/2000/svg" viewBox="0 0 463.097 421.318" class="_1ZnruP" style="fill: rgb(255, 255, 255);"><path d="M100.925 184.68c-.757-3.7-7.039-4.138-10.057-4.416a25.954 25.954 0 00-9.326.527c-4 1.1-7.9 2.524-11.831 3.856-2 .678-4.008 1.336-6.041 1.914-2.73.777-5.222 2.228-8.037 2.736-.834.15-1.681.221-2.521.34-1.074.152-3.517.308-4.344 1.045-.516.46-.344 1.18-.345 1.779a19.52 19.52 0 01-.254 2.584c-.577 4.163-1.352 8.31-2.064 12.452-1.18 6.986-2.584 13.954-3.607 20.962-.524 3.586-.91 7.189-1.273 10.794-.091.9-.189 1.8-.357 2.693a54.02 54.02 0 00-.839 5.968 35.275 35.275 0 01-.446 3.6c-.526 2.908-.776 5.855-1.055 8.8-.144 1.513-.29 3.027-.486 4.535-.136 1.048-.6 2.4.062 3.352.736 1.061 1.342 2.206 2.114 3.244a12.48 12.48 0 004.6 3.572c3.279 1.4 8.351 1.183 10.013-2.464a18.193 18.193 0 001.2-4.643c.592-3.614 1.087-7.4 1.663-11.076.307-1.961.64-3.918 1.034-5.864q.283-1.4.61-2.792c.313-1.318.79-4.215 2.24-4.654 1.713-.517 3.479-.061 5.3-.754 1.727-.655 3.334-1.608 5.1-2.165a23.779 23.779 0 003.743-1.236 15.68 15.68 0 003.351-2.769 2.348 2.348 0 00.421-.623 25.535 25.535 0 002.267-5.484c.222-.871 1.2-3.278.862-4.047-.348-.784-1.333-1.171-1.942-1.711-3.093-2.741-10.243-2.058-13.725-.613-1.383.574-2.918 1.764-3.607-.065-.521-1.383.083-3.195.159-4.633a52.187 52.187 0 01.518-6.306c.348-1.986.938-3.914 1.444-5.862.465-1.792.438-4.08 1.75-5.309a3.635 3.635 0 001.009.1 5.267 5.267 0 01.879-.115c9.129.236 18.38-2.837 26.469-6.98 1.64-.839 3.561-1.843 4.5-3.511a4.612 4.612 0 00.4-2.523c.012-1.383.712-2.721.474-4.112l-.025-.126zm121.322 39.37q.361-3.642.725-7.284a24.928 24.928 0 01.913-5.285 8.6 8.6 0 012.07-3.754 11.576 11.576 0 011.877-1.027c.661-.39 1.266-.814 1.948-1.164s1.055-.852 1.706-1.217c.349-.2.713-.368 1.077-.535.243-.111.474.045.538.34.01.049.02.1.032.147a13.332 13.332 0 01.237 3.9c-.066 1.2-.183 2.408-.278 3.611q-.165 2.106-.332 4.21c-.012.15-.034.3-.055.449-.247 1.743-.5 3.485-.742 5.228-.077.548-.116 1.1-.212 1.645a12.763 12.763 0 00-.173 2.405c.021 1.426.046 2.851.059 4.277a8.462 8.462 0 001.632 4.305c2.14 3.345 5.021 4.459 8.284 1.228.712-.7 2.013-.963 2.12-2.049.746-7.595 1.858-15.558 3.187-23.106a47.866 47.866 0 001.095-11 14.05 14.05 0 00-1.692-6.617 8.654 8.654 0 00-4.558-3.266c-3.653-1.449-7.543-3.146-11.553-2.612a10.616 10.616 0 00-3.656 1.018 19.971 19.971 0 00-3.542 2.951 21.056 21.056 0 00-3.466 3.493l-.788 1.1a.692.692 0 01-.8.265c-1.66-.383-3.283-.944-4.915-1.424a13.791 13.791 0 00-12.321 2.818c-.186.169-.379.33-.573.489-.078.064-.165.115-.249.171a.517.517 0 01-.565-.04 22.267 22.267 0 00-1.852-1.281c-1.051-.722-2.9-2.2-4.247-2.041a2.523 2.523 0 01-.6.069c-.353-.044-.6-.364-.916-.526a1.494 1.494 0 00-1.859.782c-.512.973-.273 2.224-.516 3.282-1.345 5.863-2.9 11.622-3.853 17.6A186.611 186.611 0 00183 234.792c-.082 1.456-.086 2.917-.121 4.376-.051 2.146 3.043 5.811 5 6.545 1.994.746 4.532-.31 6.486-.79a.953.953 0 00.572-.456 7.184 7.184 0 00.92-2.375 30.149 30.149 0 01.657-3.091 22.067 22.067 0 00.865-6.746c.064-3.383.826-6.592 1.224-9.928.262-2.2.814-4.346 1.243-6.515a1.938 1.938 0 01.8-1.232c.931-.686 1.831-1.414 2.752-2.114a9.749 9.749 0 01.881-.578c.861-.517 1.77-.968 2.581-1.553a29.674 29.674 0 013.726-2.261c.06-.031.175.027.255.063a.148.148 0 01.049.126 8.984 8.984 0 01-.2 1.037c-.6 2.03-.973 4.109-1.377 6.183a15.945 15.945 0 01-.526 2.043c-.821 2.437-1.206 4.978-1.821 7.464a40.865 40.865 0 00-.652 3.253 12.637 12.637 0 00-.277 2.693 10.167 10.167 0 002.206 6.327l2.106 2.661a4.061 4.061 0 001.064 1.048c.941.553 2.139.308 3.175.4 1.106.095 2.21.222 3.322.284a1.351 1.351 0 001.2-.514 10.471 10.471 0 00.682-.99c.208-.344.358-.723.575-1.06a2.55 2.55 0 00.389-1.121c.16-1.345.291-2.7.568-4.022.238-1.136.373-2.278.533-3.423.305-2.171.174-4.316.39-6.476zm-14.617-77.919a134.627 134.627 0 00.722-17.734 31.181 31.181 0 00-2.956-8.453 14.458 14.458 0 00-7.342-7c-2.8-1.051-5.877-.9-8.857-.737-1.777.1-3.555-.027-5.141.895-.478.278-.983.509-1.479.753a1.323 1.323 0 01-.423.139.332.332 0 01-.248-.124c-.221-.29-.135-.724-.429-1a11.571 11.571 0 00.256-2.148 21.986 21.986 0 01.581-3.548c.339-1.728.445-3.465.774-5.207a17.161 17.161 0 00.44-4.186 5.776 5.776 0 00-1.559-3.819 8.564 8.564 0 00-2.245-1.422 6.486 6.486 0 00-1.853-.695c-1.123-.176-2.351-.291-3.481-.4a30.156 30.156 0 00-8.268.369 2.482 2.482 0 00-.568.2.548.548 0 00-.352.452 10.593 10.593 0 01-.584 2.8 4.175 4.175 0 00-.1 1.791 1.585 1.585 0 00.425.944 5.676 5.676 0 00.655.623c.218.18.464.3.673.488-.613 1.353-.5 3.3-.656 4.78l-.582 5.356-.895 8.248c-.263 2.425-.238 5.12-1.024 7.442a29.971 29.971 0 00-.974 4.259c-.888 4.873-1.668 9.767-2.483 14.658a82.79 82.79 0 00-1.072 10.778 2.826 2.826 0 00-.027 1.04 1.6 1.6 0 01.083 1.148c.313.478.253 1.094.676 1.561a2.878 2.878 0 00.795 1.633 2.359 2.359 0 010 .337c-.119 1.944 2 3.655 3.685 3.959a11.546 11.546 0 004.341-.284c1.694-.348 3.374-.757 5.054-1.166a4.788 4.788 0 003.958-3.913q.777-4.176 1.462-8.368.768-4.712 1.417-9.441.332-2.426.633-4.855c.089-.715-.083-3.516.779-3.766.481-.139.981-.217 1.461-.359 1.655-.487 2.738-1.835 3.794-3.109a40.387 40.387 0 014.075-3.924.54.54 0 01.57-.073.944.944 0 01.734.854c.457 9.51-2.61 18.882-2.729 28.432-.023 1.8.272 4.675 2.148 5.582 1.631.789 3.78.307 5.541.292a7.137 7.137 0 003.69-.81 8.381 8.381 0 00.807-.582 14.761 14.761 0 003.765-3.509 14.473 14.473 0 001.607-5.129q.365-2.03.726-4.052zm34.451-26.955zm13.519 2.339a1.76 1.76 0 00-.248-.712 2.549 2.549 0 00-.145-.24c-.006-.044-.011-.087-.019-.132a8.752 8.752 0 00-.419-1.591 5.539 5.539 0 00-.732-1.5.99.99 0 00-.09-.1 2.138 2.138 0 00-.485-.875c-.231-.266-.456-.546-.71-.788-.963-1.662-2.96-2.837-4.553-3.764a25.515 25.515 0 00-3.692-1.754 4.852 4.852 0 00-1.275-.643 9.008 9.008 0 00-1.308-.509 5.6 5.6 0 00-2.309-.64 54.259 54.259 0 00-3.8-.121c-2.987-.247-6.2-.143-8.774 1.126a15.8 15.8 0 00-1.8.651 31.228 31.228 0 00-2.488 2.036 19.745 19.745 0 00-1.954 1.959c-.757.9-1.452 1.857-2.124 2.824a27.219 27.219 0 00-3.674 6.9c-.4 1.216-.82 2.429-1.185 3.657a15.681 15.681 0 00-.675 5.576 16.657 16.657 0 00.462 4.321c.914 3.489 1.619 6.253 4.23 8.859l2.193 2.189c6.282 6.27 15.713 5.034 23.474 2.377 3.361-1.151 6.071-2.986 7.052-6.553a7.259 7.259 0 00.193-1.626 9.088 9.088 0 00-.688-4.155c-.072-.136-.124-.283-.2-.416a.4.4 0 01-.054-.187c-.385-.308-.758-.632-1.14-.943a1.258 1.258 0 01-.182-.183 45.242 45.242 0 01-1.971-.208 10.04 10.04 0 00-4.25.444c-1.567.479-3.1 1.069-4.654 1.593a92.483 92.483 0 01-3.511 1.129 7.133 7.133 0 01-4.095-.056 5.25 5.25 0 01-2.6-1.818.793.793 0 010-1 12.1 12.1 0 011.392-1.2 13.084 13.084 0 011.733-.994 4.024 4.024 0 012.424-.8c.181.027.386-.118.584-.171a1.433 1.433 0 01.583-.116 4.735 4.735 0 001.669-.19 22.094 22.094 0 005.929-1.548 5.118 5.118 0 01.873-.293 42.691 42.691 0 005.643-1.99 12.648 12.648 0 011.872-.681 5.573 5.573 0 001.423-.553 32.98 32.98 0 001.862-1.081c.567-.349 1.128-.71 1.671-1.095a1.226 1.226 0 00.579-1.032c-.013-1.128-.004-2.256-.037-3.383zm-12.225-.485c-1.694.37-3.327.969-5.045 1.263a19.768 19.768 0 00-3.1.95 17.959 17.959 0 01-3.767.968 10.675 10.675 0 00-3.878 1.13 3.214 3.214 0 01-1.245.345c-.046 0-.13-.025-.138-.056a.437.437 0 01-.024-.281c.014-.025.03-.047.044-.071a.463.463 0 01.006-.307c.905-2.675 3.763-3.963 6.14-5.078a15.191 15.191 0 014.545-1.58 16.4 16.4 0 014.683.359 3.1 3.1 0 001.33.624c.1.016.192.038.286.063a2.968 2.968 0 00.782.536 2.829 2.829 0 00.395.744 4.533 4.533 0 01-1.014.391zm-63.022 90.59a3.486 3.486 0 00.926-4.02 10.906 10.906 0 00-.7-1.639 3.85 3.85 0 00-1.208-1.328 24.425 24.425 0 00-8.381-3.461 15.531 15.531 0 00-10.074.608 5.262 5.262 0 00-.937.485c-.79.535-1.564 1.1-2.342 1.65-.245.175-.477.369-.724.542a.883.883 0 01-.856.127 12.022 12.022 0 01-2.213-.925 11.156 11.156 0 00-2.057-.924 9.862 9.862 0 00-3.43-.355.944.944 0 00-.15.017 2.452 2.452 0 00-2.1 1.5 3.9 3.9 0 01-.632 1.022 6.55 6.55 0 00-.8 2.755 71.835 71.835 0 00-.8 3.921c-.479 2.708-.819 5.438-1.089 8.174-.775 7.85-1.046 15.349-1.133 23.232-.033 2.983 1.209 5.49 2.4 8.146a2.753 2.753 0 001.186 1.317c.218.123.411.288.622.426 2.075 1.362 4.783.741 6.8-.408 2.384-1.356 3.133-3.653 3.058-6.363a43.674 43.674 0 01.742-9.616c.348-1.772.773-3.528 1.2-5.283.689-2.852.487-5.328 2.2-7.766a55.949 55.949 0 015.72-6.576c1.786-1.847 4.857-4.053 7.637-3.987a22.762 22.762 0 003.9.2 6.676 6.676 0 002.5-.933 5.121 5.121 0 00.735-.538zm174.939-55.148v.006l.022-.041v.005c-.014.007-.023.009-.034.014l.01.019zm-63.445 34.744a9.872 9.872 0 00-.533-1.353c-.572-1.268-1.057-3.268-1.986-4.3a31.389 31.389 0 00-3.008-2.726c-1.258-1.052-2.7-2.607-4.2-3.264a7.078 7.078 0 00-3.116-.355 37.315 37.315 0 00-9.133 1.055 8.029 8.029 0 01-1.164.309 5.208 5.208 0 00-2.091.805 6.062 6.062 0 01-.656.371 7.3 7.3 0 00-3.042 2.845c-.434.676-.91 1.325-1.359 1.992a21.986 21.986 0 00-1.235 1.887 37.074 37.074 0 00-2.543 5.8 12.848 12.848 0 01-1.014 2.516.988.988 0 00-.135.424 6.585 6.585 0 01-.515 1.885 42.643 42.643 0 00-1.955 9.588c-.4 3.348-.884 6.819.506 10.02a16.7 16.7 0 002.3 3.6 17.8 17.8 0 002.609 2.806 20.629 20.629 0 004.06 2.411 28.069 28.069 0 0016.531 2.141c2.188-.336 5.175-.8 6.568-2.723a6.4 6.4 0 00.973-3.223c.078-.873.587-4.329-.1-4.991a1.909 1.909 0 01-.519-.6 10.1 10.1 0 00-1.1-1.6 2.857 2.857 0 00-1.351-1.146 7.8 7.8 0 00-.983-.368c-.721-.215-1.454-.391-2.172-.617a17.4 17.4 0 00-3.239-.64c-1-.116-1.991-.254-3-.282a.164.164 0 01-.174-.2c0-.046.008-.111.037-.133.48-.361.965-.714 1.445-1.075 1.638-1.23 3.247-2.451 4.926-3.654 1.595-1.143 2.912-2.658 4.583-3.688a17.3 17.3 0 005.506-4.869 6.116 6.116 0 00.976-2.663 16 16 0 00-.345-3.565 16.113 16.113 0 00-.352-2.42zm-11.347 3.058a4.041 4.041 0 01-1.066.825c-1.138.643-2.245 1.343-3.393 1.967a36.007 36.007 0 00-6.852 4.9c-.484.435-1.027.805-1.549 1.2a.476.476 0 01-.551-.087 1.026 1.026 0 01-.349-.8 3.014 3.014 0 01.384-1.444c.439-.688.453-1.537.865-2.233a4.618 4.618 0 01.361-1.755c.139-.32.289-.636.433-.954a1.478 1.478 0 01.738-.711 22.057 22.057 0 002.659-1.71c.284-.2.594-.364.892-.545.61.042 1.14-.385 1.77-.285a3.268 3.268 0 001.049 0 8.718 8.718 0 013.577.327 1.769 1.769 0 011.091.758.987.987 0 01.077.28 1.2 1.2 0 01-.136.267z"></path><path d="M266 227.946l.03.028-.024-.027zm-135.455 96.377l-.033.037.007.006-.007.01.028.008z"></path><path d="M175.233 300.475a29.57 29.57 0 00-.23-2.32 14.006 14.006 0 00-2.046-7.964 29.243 29.243 0 00-2.171-4.636 7.308 7.308 0 00-1.256-2.052 7.138 7.138 0 00-1.583-1.917 27.091 27.091 0 00-8.218-6.851 6.907 6.907 0 00-2.933-1.668l-3.43-1.294a3.715 3.715 0 00-.5-.147 35.156 35.156 0 00-5.013-1.315 8.522 8.522 0 00-1.183-.126c-2.062-.5-4.439-.056-6.493.236a69.179 69.179 0 00-7.289 1.436 27 27 0 00-4.361 1.423c-1.405.624-2.714 1.436-4.095 2.108-.421.205-3.981 1.211-4.012 1.338-.009.039-.021.074-.031.11l-.044.015a4.639 4.639 0 00-1.224.631c-.1.04-.213.1-.315.134a.294.294 0 00-.205.312 3.962 3.962 0 00-1.04 3.4c.233 1.511-.834 4.137-1.138 5.635 0 2.326-1 5.056-1.461 7.349l-.036.052a1.163 1.163 0 00-.188 1.051 133.329 133.329 0 00-2.155 14.591c-.4 4.257-1.2 8.46-1.819 12.688-.312 2.13-.579 4.269-.721 6.419a32.186 32.186 0 00-.2 6.082c.1.792.366 1.555.507 2.342a10.466 10.466 0 00.405 2 6.287 6.287 0 002.245 2.484l10.059 7.713a3.368 3.368 0 001.915.534c5.374.606 9.906-1.824 14.386-4.508q3.213-1.926 6.4-3.888a48.722 48.722 0 004.322-2.881c3.059-2.363 5.515-5.455 8.711-7.641a14.312 14.312 0 001.533-1.107c.994-.889 1.749-2.037 2.705-2.975q1.585-1.555 3.032-3.246a54.705 54.705 0 005.227-7.192 28.138 28.138 0 003.97-13.469q.056-1.443-.027-2.886zm-19.873 2.572c-3 6.878-8.02 12.571-13.663 17.414a38.487 38.487 0 01-3.775 2.961 35.781 35.781 0 00-3.729 2.8c-.9.785-1.88 1.49-2.837 2.213a.933.933 0 01-1.335-.191c-.1-.116-.183-.243-.269-.368a16.094 16.094 0 01.45-2.588c.459-2.236.417-4.713.652-7q.376-3.674.759-7.347l.59-5.681.216-2.079.643-6.2c.128-1.23.1-4.924 1.258-5.688a.34.34 0 01.5.12c0-.5.507-.834.963-1.037 2.28-1.017 4.78-.977 7.218-1.2a18.085 18.085 0 017.908.644l.048.018a9.838 9.838 0 015.782 5.312c1.037 2.693-.299 5.423-1.379 7.897z"></path><path d="M174.329 309.976l.043-.025-.042.022-.001.003zm52.356 47.179c-.01-.013-.021-.021-.031-.032h-.009l.021.019-.021-.019c0 .02.012.039.018.059l.025-.02z"></path><path d="M226.489 357.332c-.018.019 0 .1.025.121.088.076.177.047.192-.075a.494.494 0 00-.043-.2 1.6 1.6 0 00-.174.154zm-8.227-48.975c1.195-2.557 1.2-5.32 1.391-8.064a20.247 20.247 0 00-.261-5.989 13.2 13.2 0 00-.771-2.347 32.892 32.892 0 00-12-13.2 11.675 11.675 0 00-4.275-1.555c-1.7-.166-3 .719-4.482 1.4a53.024 53.024 0 00-5.159 2.243 19.014 19.014 0 00-6.27 6.609c-3.752 5.9-7.377 12.382-7.151 19.37a35.1 35.1 0 00.6 4.851c.308 1.768.654 4.6 1.637 6.1a38.777 38.777 0 012.493 3.666 14.81 14.81 0 004.517 5.362c.344.281.669.6 1 .887a4.652 4.652 0 001.219.565 17.63 17.63 0 005.653 1.566 12.6 12.6 0 005.446-.589c.18-.083.334-.23.519-.293a9.31 9.31 0 001.426-.458 7.149 7.149 0 011.266-.773 3.8 3.8 0 001.018-.616 12.558 12.558 0 001.185-.924c1.491-1.288 2.522-3.414 3.636-5.029l4.005-5.808c.637-.924.915-2.42 1.467-3.453m-11.271-9.571c-.38 1.049-.9 2.045-1.373 3.056a24.8 24.8 0 01-1.128 2.209 16.594 16.594 0 01-1.371 1.929c-.153.189-.309.376-.466.561-.484.568-1.139 1.091-1.561 1.694-.127.18-.22.382-.345.563-.333.482-.859.791-1.187 1.276-.38.563-.672 1.217-1.029 1.8a4.592 4.592 0 01-.446.6.428.428 0 01-.649-.074 10.192 10.192 0 01-.927-5.914c.342-1.892.683-3.785 1.121-5.657a13.849 13.849 0 012.022-5.084c.94-1.293 2.258-2.256 3.191-3.552a7.388 7.388 0 011.315-1.744c.637-.5 1.467-.662 2.124-1.129a1.132 1.132 0 01.443-.155c1.118-.223 2.656-.616 2.585 1-.007.151-.042.3-.035.45.146 2.8-1.353 5.604-2.284 8.171zm59.277-6.114l-.028-.054h-.037l-.036.017.1.029zm-89.232 8.322l-.03.038.038-.021zm0 0c.016-.021.031-.04.028-.042-.065-.066-.073-.049-.028.042zm-.719 5.514l-.067-.036-.02.061zm209.101-141.856h.027v-.373h-.026l-.001.373zm-248.61 82.174a41.077 41.077 0 01-2.725-2.4c-.621-.6-1.937-1.556-2.265-2.336a8.031 8.031 0 00-.831-1.712 1.146 1.146 0 01-.1-.174c1.077-8.186.822-16.795 2.472-24.864.3-1.471.543-2.846.7-4.334a14.748 14.748 0 01.428-2.006q-.082-.269-.188-.531c-.961-2.389-3.009-3.4-5.04-4.849-.734-.523-1.5-.908-2.234-1.446a4.267 4.267 0 00-2.321-.834.456.456 0 00-.545.374c-.254.8-.49 1.6-.769 2.386-.218.614-.431.7-.991.414-1.971-1.008-3.607-2.6-5.923-2.79a9.089 9.089 0 00-2.436.208 29.189 29.189 0 00-5.921 1.755 9.285 9.285 0 00-3.46 3.129A71.975 71.975 0 0089.8 238.351a27.313 27.313 0 00-.561 3.5 23.875 23.875 0 00.235 5.01 10.561 10.561 0 00.618 2.73 10.662 10.662 0 01.5 1.849c.926 4.2 3.207 8.018 7.614 9.318 2.457.724 5.087.183 7.589-.362a19.411 19.411 0 006.035-2.042 14.391 14.391 0 003.923-4.134.65.65 0 01.207-.2.924.924 0 00.621-.75c.006-.063.137-.144.223-.164a1.366 1.366 0 011.01 0 3.054 3.054 0 001.277.307c1.437.14 2.507 1.048 3.813 1.468s2.686.558 4.018.9c1.251.318 2.386.96 3.641 1.288a6.186 6.186 0 002.177-.234.8.8 0 00.513-.265 3.484 3.484 0 01.893-.759.924.924 0 00.295-.323 15.313 15.313 0 001.147-3.309 1.249 1.249 0 00.034-.293 1.784 1.784 0 00-.705-1.539zM118.1 220.834c-.935 3.593-1.6 7.247-2.3 10.892-.645 3.377-1.9 6.968-1.768 10.427a1.479 1.479 0 01-.587 1.286 19.562 19.562 0 01-6.963 4.084c-.976.271-3.012 1.375-3.832.376a1.5 1.5 0 01-.267-.564c-.712-2.584 1.371-5.974 2.278-8.286 0-1.013 1.024-2.609 1.4-3.565l1.526-3.891c.936-2.392 1.82-4.8 2.881-7.145.766-1.69 2.121-4.538 4.319-4.662a9.793 9.793 0 012.974-.612c.146.017.267 0 .336.047.108.079.265.217.254.312a10.086 10.086 0 01-.251 1.301zm120.525 103.928l.094-.048s-.03-.026-.03-.022-.064.07-.064.07zm-.55.906l.02.057c.064-.054.055-.072-.02-.057z"></path><path d="M383.452 165.78a5.786 5.786 0 00-.363-1.661 7.335 7.335 0 00-.964-1.544c-1.593-2.135-3.327-4.149-4.916-6.283a1.6 1.6 0 00-1.115-.7c-3.429-.387-7.132 1.2-10.217 2.549a12.593 12.593 0 00-3.4 2c-1.362 1.213-2.113 2.875-3.1 4.351a48.048 48.048 0 00-3.02 5.242c-1.186 2.357-1.258 5.792-1.375 8.395-.072 1.617-.142 4.522 1.015 5.814l.049.051a6.115 6.115 0 00.373.752 4.721 4.721 0 001 1.2c1.837 3.194 4.674 5.224 7.566 7.473 1.291 1 1.056 1.39.013 2.429a9.078 9.078 0 01-3.267 1.971c-1.6.6-3.284.916-4.907 1.435a20.683 20.683 0 00-4.868 2.3c-1.6 1.024-2.861 2.362-4.684 3a2.666 2.666 0 00-.316-.082.609.609 0 00-.8.643c.137 2.305-.514 9.223 2.63 9.791 4.56.825 9.69.973 14.111-.479a24.682 24.682 0 0010.723-6.354c2.639-2.806 5.306-6.805 6.174-10.614a6.4 6.4 0 00-.2-3.8 6.55 6.55 0 00-.281-.824l-.014-.041a1.912 1.912 0 00-.216-.437q-.144-.273-.313-.53a17.583 17.583 0 00-1.8-3.241l-3.707-5.632a29.348 29.348 0 00-2.254-3.074c-1.179-1.366-1-2.152-.471-3.734a3.472 3.472 0 012.119-2.51c2.732-1.072 5.877-1.062 8.491-2.344 2.186-1.071 2.524-2.8 2.344-5.108-.015-.129-.026-.267-.04-.404zM234.573 330.053v.183a.668.668 0 00.039-.135c.002-.014-.012-.031-.039-.048zm.001.294v-.111c-.011.032-.024.064-.035.1zm-.053-.335c.014.013.034.027.052.041v-.06zm112.41-155.528a7.762 7.762 0 002.07-2.713c1.23-2.684 1.785-5.579 3.224-8.179a27.32 27.32 0 003.412-8.6 11.777 11.777 0 00-2.57-8.994c-1.328-1.792-5.789-5.347-8.009-3a11.709 11.709 0 00-1.964 3.836q-2.055 5.321-3.784 10.758c-.576 1.813-1.085 3.644-1.644 5.461-.406 1.321-1.058 3-.554 4.377.081.222.213.421.309.637a4.159 4.159 0 01.224.743l.7 2.959a5.452 5.452 0 004.267 4.018 5.373 5.373 0 004.319-1.303zM231.137 334.565s.043.007.05.01-.021-.028-.021-.028zm34.847-106.49l.013-.091c-.107.029-.115.059-.013.091z"></path><path d="M266 227.946l-.006.038c.013 0 .021-.007.036-.01zm67.729-49.281c-1.573-1.327-2.977-3.233-4.837-4.152a18.4 18.4 0 00-5.6-1.217 3 3 0 00-1.041.043c-.491.1-.994.157-1.482.276a15.4 15.4 0 00-2.32.647c-1.155.487-2.261 1.09-3.384 1.651-.178.089-.328.238-.51.318-.909.4-1.556.946-2.138-.053a7.572 7.572 0 00-1.012-1.838 12.983 12.983 0 00-2.657-1.834 1.893 1.893 0 00-.622-.284 1.752 1.752 0 00-.863.126 12.778 12.778 0 00-3.729 2 2.547 2.547 0 00-.732.774 2.823 2.823 0 00-.246.936c-.591 4.124-1.358 8.191-1.659 12.359-.558 7.732-1.25 15.479-1.539 23.211a35.524 35.524 0 00.047 4.366 14.858 14.858 0 001.222 4.48 11.1 11.1 0 001.038 2 2.113 2.113 0 001.322.926 3.672 3.672 0 001.643-.041 16.2 16.2 0 012.068-.338 8.637 8.637 0 003.246-1.122c.546-.337.9-.948 1.6-1.086.123-.024.236-.186.319-.308 1.924-2.822 1.464-6.466 1.294-9.7a68.584 68.584 0 01.419-11.969 4.917 4.917 0 01.32-1.428c1.04-2.3 3.413-4.375 5.4-5.844a21.945 21.945 0 013.982-2.341c1.237-.561 2.93-1.478 4.29-1.058a12.171 12.171 0 011.849.622 2.66 2.66 0 001.61.192 9.42 9.42 0 001.033-.246c.476-.117 1.823-2.065 2.169-2.542a8.771 8.771 0 001.267-3.862 2.311 2.311 0 00-.155-1.331 6.186 6.186 0 00-1.612-2.333zm-199.357 113.69l.102.016-.033-.132-.069.116zM88.809 123.132c.8 1.087.659 2.537.874 3.808a10.31 10.31 0 001.51 4.091c1.729 2.578 4.8 4.593 8 4.235a18.111 18.111 0 004.049-1.1l8.516-3.052c1.624-.582 4.326-2.238 3.72.592q-.411 1.917-.812 3.838-.833 3.959-1.638 7.924c-1.332 6.91-2.44 13.886-4.759 20.528a6.359 6.359 0 00-.379 3.75c.584 2.1 2.913 3.541 4.379 5.02a5.475 5.475 0 001.279 1.052 4.613 4.613 0 001.35.411c2.517.449 5.109.04 7.632-.134a33.2 33.2 0 003.744-.909c1.538-.26 2.029-1.67 2.4-2.983a13.533 13.533 0 01.864-3.083l1-3.558c.308-1.1.7-2.2.93-3.322.213-1.023.14-2.075.357-3.107a1.842 1.842 0 00.01-.452 6.817 6.817 0 01.161-1.646c.314-1.587.318-3.269.585-4.882l.965-5.835a66.214 66.214 0 001.2-7.283c.411-2.483.666-4.827.862-7.311a9.463 9.463 0 00.222-2.892c-.173-.81-1.293-2.338-.739-3.115.292-.409 1.832-.767 2.32-.925 2.245-.726 4.482-1.273 6.793-1.786l1.82-.4c.979-.217 1.959-.435 2.934-.672a48.291 48.291 0 005.109-1.515c1.568-.572 2.987-1.463 4.707-1.372a1.2 1.2 0 001.269-1.064 2.531 2.531 0 00.085-.891 20.944 20.944 0 00-1.809-5.059 14.944 14.944 0 00-.916-1.93c-1.759-2.942-5.431-4.612-8.691-5.2-3.2-.58-6.73.263-9.866.888a316.9 316.9 0 00-36.068 9.51c-4.9 1.6-10.725 3.209-14.68 6.668a1.846 1.846 0 00-.482.568 1.507 1.507 0 00.229 1.436c.274.411.664.75.964 1.159zm149.276 202.515l-.025-.02-.03.051a.323.323 0 01.042-.009v-.013zm19.342-1.006h-.026l.017.015v-.009z"></path><path d="M263.633 286.4a35.707 35.707 0 00-2.524-7.725c-.932-2.1-1.949-4.557-3.9-5.917a6.558 6.558 0 00-.655-.44 3.606 3.606 0 00-.275-.354 11.537 11.537 0 00-3.042-2.465 7.374 7.374 0 00-.805-.728 1.785 1.785 0 00-.459-.247c-.052-.048-.1-.1-.153-.148a35.267 35.267 0 01-3.758-1.153 3.979 3.979 0 00-.682.249 3.64 3.64 0 01-.573.064 7.355 7.355 0 00-3.306.861c-.311.165-.62.334-.93.5-1.464.781-3.594 1.577-4.983 2.487a28.993 28.993 0 00-5.869 5.172 22.491 22.491 0 00-2.416 3.084c-.629 1.031-1.168 2.106-1.735 3.167a22.62 22.62 0 00-2.724 12.063c.119 5.994.523 12.326 3.862 17.513A13.282 13.282 0 00231 315.6a8.208 8.208 0 001.639.693q.923.4 1.83.845c1 .486 2.671.973 3.669 1.459a21.6 21.6 0 002.444 1.353.439.439 0 01.179.384 6.416 6.416 0 01-.5 1.858 56.846 56.846 0 01-10.343 13.438 169.171 169.171 0 00-6.288 6.362 1.313 1.313 0 00-.216.372 11.7 11.7 0 01-1.091 1.916 1.111 1.111 0 00-.279.646c0 .13.056.255.059.385a1.148 1.148 0 01-.107.414c-.715 1.883.389 3.482.576 5.361.11 1.115.308.851.454 1.958a4.21 4.21 0 00.417 1.5 5.191 5.191 0 003.271 2.55 21.455 21.455 0 002.291.391 3.5 3.5 0 002.5-1.17 32.7 32.7 0 015.023-4.5 39.034 39.034 0 004.584-3.517c1.306-1.246 2.37-2.806 3.566-4.177l2.481-2.844 4.107-4.71a22.036 22.036 0 001.491-1.838 19.353 19.353 0 001.625-2.976 76.281 76.281 0 005.023-14.769c.311-1.325.546-2.666.843-3.994.5-2.223 1.165-4.4 1.694-6.618.517-2.166.647-4.355 1.112-6.529.277-1.3.642-2.575.855-3.885.043-.26.077-.52.105-.779a30.131 30.131 0 00-.381-8.779zM223.9 342.428c-.1.026-.157-.043-.13-.171a.129.129 0 01.115-.054c.033.01.052.07.078.108-.021.041-.034.11-.063.117zm26.312-53.084c-.328 2.231-.748 4.448-1.2 6.657-.06.293-.078.6-.116.893a69.538 69.538 0 01-.711 4.3 13.826 13.826 0 01-.855 2.879.743.743 0 01-.425.383 5.564 5.564 0 01-1.184.171c-1.1.043-2.21.055-3.315.08v.02c-.951.019-1.9.045-2.854.052-.4 0-.8-.041-1.2-.053a1.077 1.077 0 01-1.084-.869c-.082-.289-.144-.584-.215-.877-.606-2.521-1.173-4.376-.415-6.946a24.314 24.314 0 011.553-4.262c2-3.889 5.594-5.842 9.729-6.624a6.771 6.771 0 011.04-.133 1.357 1.357 0 011.5 1.481 25.88 25.88 0 01-.248 2.848zm-54.774 16.438l.029-.042-.088-.048.059.09z"></path></svg></g></svg>